<?xml version="1.0" standalone="no"?>
<!DOCTYPE svg PUBLIC "-//W3C//DTD SVG 20010904//EN"
 "http://www.w3.org/TR/2001/REC-SVG-20010904/DTD/svg10.dtd">
<svg version="1.0" xmlns="http://www.w3.org/2000/svg"
 width="16.000000pt" height="16.000000pt" viewBox="0 0 16.000000 16.000000"
 preserveAspectRatio="xMidYMid meet">
<metadata>
Created by potrace 1.11, written by Peter Selinger 2001-2013
</metadata>
<g transform="translate(0.000000,16.000000) scale(0.001600,-0.001600)"
fill="#000000" stroke="none">
<path d="M4904 8562 c-30 -20 -49 -52 -110 -179 -41 -85 -74 -156 -74 -158 0
-2 -21 -47 -46 -101 -25 -54 -71 -153 -101 -219 -30 -66 -68 -149 -85 -185
-44 -93 -79 -168 -141 -305 -30 -66 -68 -149 -85 -185 -16 -36 -46 -101 -67
-145 -20 -44 -72 -156 -115 -250 -43 -93 -91 -199 -108 -235 -16 -36 -112
-243 -212 -460 -100 -217 -200 -433 -221 -478 -22 -46 -39 -86 -39 -87 0 -2
-24 -55 -54 -117 -29 -62 -90 -194 -136 -293 -45 -99 -102 -222 -126 -274 -24
-51 -44 -95 -44 -96 0 -2 -22 -50 -49 -107 -54 -115 -95 -203 -121 -263 -10
-22 -37 -80 -60 -130 -54 -113 -57 -166 -13 -228 32 -46 -74 10 1138 -602 402
-202 937 -472 1190 -600 253 -128 687 -347 965 -487 419 -212 1656 -836 1725
-871 11 -6 27 -14 35 -18 130 -68 166 -81 217 -77 60 5 114 41 137 91 33 71
25 103 -75 319 -44 95 -89 191 -99 213 -10 22 -39 84 -64 139 -25 54 -46 100
-46 101 0 2 -22 50 -49 107 -27 56 -59 126 -71 153 -12 28 -42 92 -66 143 -24
51 -44 95 -44 97 0 1 -27 60 -60 129 -33 70 -60 128 -60 131 0 19 -108 224
-127 240 -12 11 -238 129 -500 262 -263 132 -684 345 -936 472 -251 127 -465
235 -475 240 -9 5 -48 25 -87 44 -848 425 -818 406 -818 514 0 52 10 78 87
243 48 102 93 199 101 215 7 17 31 68 53 115 22 47 51 110 65 140 13 30 38 84
55 120 16 36 96 209 177 385 81 176 167 362 191 414 24 51 44 95 44 97 0 2 27
60 60 130 33 69 60 128 60 129 0 2 26 59 58 127 103 217 102 216 23 387 -50
107 -89 192 -144 311 -22 48 -128 279 -242 525 -20 44 -44 96 -52 115 -113
248 -131 278 -172 305 -56 34 -134 33 -187 -3z"/>
<path d="M2720 3764 c-69 -30 -70 -32 -195 -304 -29 -63 -71 -154 -94 -202
-23 -48 -41 -89 -41 -92 0 -2 -27 -61 -60 -130 -33 -70 -60 -128 -60 -130 0
-2 -25 -56 -55 -119 -30 -64 -74 -160 -99 -214 -24 -54 -64 -141 -89 -193 -24
-52 -57 -122 -72 -155 -63 -139 -130 -286 -167 -365 -112 -239 -124 -278 -100
-340 24 -62 96 -110 166 -110 34 0 93 29 751 365 132 67 402 205 600 305 198
100 464 235 590 300 127 65 312 159 413 210 100 50 196 103 214 118 55 46 73
127 44 195 -26 62 67 12 -1210 656 -440 222 -470 234 -536 205z"/>
</g>
</svg>
