<?xml version="1.0" standalone="no"?>
<!DOCTYPE svg PUBLIC "-//W3C//DTD SVG 20010904//EN"
 "http://www.w3.org/TR/2001/REC-SVG-20010904/DTD/svg10.dtd">
<svg version="1.0" xmlns="http://www.w3.org/2000/svg"
 width="1000.000000pt" height="1000.000000pt" viewBox="0 0 1000.000000 1000.000000"
 preserveAspectRatio="xMidYMid meet">
<metadata>
Created by potrace 1.11, written by Peter Selinger 2001-2013
</metadata>
<g transform="translate(0.000000,1000.000000) scale(0.100000,-0.100000)"
fill="#000000" stroke="none">
<path d="M0 5000 l0 -5000 5000 0 5000 0 0 5000 0 5000 -5000 0 -5000 0 0
-5000z m5128 3991 c20 -10 45 -28 55 -39 19 -21 685 -1450 707 -1517 7 -21 9
-52 5 -72 -4 -20 -267 -600 -586 -1289 -481 -1040 -579 -1259 -579 -1295 0
-52 32 -122 68 -148 15 -10 714 -364 1555 -786 891 -448 1539 -778 1555 -794
39 -40 862 -1820 869 -1881 4 -37 0 -55 -24 -99 -35 -68 -90 -101 -166 -101
-47 0 -252 102 -2941 1451 -1590 798 -2907 1464 -2926 1479 -53 41 -75 85 -74
150 1 51 78 221 1114 2460 612 1323 1122 2417 1133 2432 47 63 161 87 235 49z
m-1635 -5825 c485 -245 893 -455 906 -467 39 -37 64 -105 57 -157 -7 -52 -37
-104 -74 -130 -15 -10 -657 -338 -1427 -728 -1396 -707 -1400 -709 -1461 -709
-74 0 -133 34 -164 95 -47 92 -72 27 506 1278 289 625 537 1156 550 1179 33
58 110 97 177 89 37 -4 243 -104 930 -450z"/>
</g>
</svg>
