<?xml version="1.0" standalone="no"?>
<!DOCTYPE svg PUBLIC "-//W3C//DTD SVG 20010904//EN"
 "http://www.w3.org/TR/2001/REC-SVG-20010904/DTD/svg10.dtd">
<svg version="1.0" xmlns="http://www.w3.org/2000/svg"
 width="550.000000pt" height="550.000000pt" viewBox="0 0 550.000000 550.000000"
 preserveAspectRatio="xMidYMid meet">
<metadata>
Created by potrace 1.11, written by Peter Selinger 2001-2013
</metadata>
<g transform="translate(0.000000,550.000000) scale(0.100000,-0.100000)"
fill="#000000" stroke="none">
<path d="M2705 5036 c-10 -6 -25 -16 -32 -23 -14 -12 -111 -213 -203 -418 -12
-27 -44 -95 -70 -150 -26 -55 -54 -116 -63 -135 -8 -19 -37 -80 -62 -135 -26
-55 -60 -127 -75 -160 -15 -33 -47 -100 -70 -150 -23 -49 -51 -110 -62 -135
-11 -25 -41 -88 -65 -140 -25 -52 -57 -120 -71 -150 -13 -30 -45 -98 -69 -150
-25 -52 -56 -120 -70 -150 -14 -30 -47 -102 -74 -159 -27 -57 -49 -105 -49
-106 0 -2 -31 -69 -70 -149 -38 -81 -70 -149 -70 -151 0 -3 -30 -67 -66 -142
-102 -212 -108 -238 -66 -288 9 -12 772 -398 1696 -859 1508 -753 1682 -837
1712 -831 30 5 82 44 85 63 10 63 6 78 -56 208 -36 75 -65 137 -65 139 0 2
-23 52 -51 112 -28 59 -62 133 -76 163 -14 30 -52 110 -84 178 -33 68 -59 125
-59 127 0 2 -20 46 -45 99 -36 77 -51 100 -82 119 -21 13 -428 217 -904 455
-811 405 -866 434 -882 466 -23 49 -24 43 80 266 25 52 56 120 70 150 14 30
38 82 53 115 16 33 44 94 63 135 19 41 50 109 70 150 19 41 52 111 72 155 21
44 55 118 77 165 22 47 51 110 65 140 122 264 117 247 98 300 -7 19 -35 82
-63 140 -54 116 -96 206 -143 308 -17 37 -46 99 -64 137 -18 39 -53 113 -78
166 -48 103 -80 136 -132 137 -16 0 -39 -5 -50 -12z"/>
<path d="M1255 1947 c-14 -11 -41 -52 -59 -91 -18 -39 -49 -105 -68 -146 -45
-94 -118 -253 -193 -415 -12 -27 -44 -95 -70 -150 -26 -55 -74 -156 -105 -225
-32 -69 -79 -170 -105 -225 -51 -107 -60 -142 -43 -162 6 -7 7 -13 3 -13 -14
0 29 -41 57 -56 15 -8 35 -14 44 -14 20 0 407 190 412 202 2 4 8 8 14 8 12 0
487 237 506 252 6 6 12 7 12 3 0 -4 6 -3 13 3 6 6 77 42 157 82 80 39 152 75
160 80 8 5 101 52 206 105 161 81 194 102 209 129 22 41 14 97 -18 127 -12 11
-227 122 -477 247 -250 124 -458 230 -461 235 -3 5 -9 9 -12 8 -4 0 -27 9 -51
20 -53 23 -95 22 -131 -4z"/>
</g>
</svg>
